# This file uses centimeters as units for non-parametric coordinates.

mtllib hammer.mtl
g default
v 0.353553 0.042620 -0.279994
v -0.000000 0.042620 -0.395971
v -0.353553 0.042620 -0.279994
v -0.500000 0.042620 0.000000
v -0.353553 0.042620 0.279994
v 0.000000 0.042620 0.395971
v 0.353553 0.042620 0.279994
v 0.500000 0.042620 0.000000
v 0.612372 0.159059 -0.484964
v -0.000000 0.159059 -0.685842
v -0.612372 0.159059 -0.484964
v -0.866025 0.159059 0.000000
v -0.612372 0.159059 0.484964
v 0.000000 0.159059 0.685842
v 0.612372 0.159059 0.484964
v 0.866025 0.159059 0.000000
v 0.707107 0.318116 -0.559988
v 0.000000 0.318116 -0.791942
v -0.707107 0.318116 -0.559988
v -1.000000 0.318116 0.000000
v -0.707107 0.318115 0.559988
v 0.000000 0.318115 0.791942
v 0.707107 0.318115 0.559988
v 1.000000 0.318115 0.000000
v 0.699506 16.234329 -0.432516
v 0.000000 16.234329 -0.432592
v -0.701584 16.234329 -0.432516
v -0.700650 16.234329 0.000000
v -0.701584 16.234329 0.449266
v 0.000000 16.234329 0.447027
v 0.699506 16.234329 0.449266
v 0.707370 16.234329 0.000000
v 0.000000 0.000000 0.000000
v 0.000000 8.260208 0.857817
v -0.707107 8.260208 0.606568
v -1.000000 8.260209 0.000000
v -0.707107 8.260209 -0.606568
v 0.000000 8.260209 -0.857817
v 0.707107 8.260209 -0.606568
v 1.000000 8.260208 0.000000
v 0.707107 8.260208 0.606568
v 0.000000 6.020602 0.791942
v -0.617507 6.020602 0.559988
v -0.873287 6.020603 0.000000
v -0.617507 6.020603 -0.559988
v 0.000000 6.020603 -0.791942
v 0.617507 6.020603 -0.559988
v 0.873288 6.020602 0.000000
v 0.617508 6.020602 0.559988
v 0.000000 10.954936 0.791942
v -0.515735 10.954936 0.559988
v -0.729360 10.954936 0.000000
v -0.515735 10.954936 -0.559988
v 0.000000 10.954936 -0.791942
v 0.515735 10.954936 -0.559988
v 0.729360 10.954936 0.000000
v 0.515735 10.954936 0.559988
v 0.691296 15.788194 0.559988
v 0.000000 15.788194 0.791942
v -0.691296 15.788194 0.559988
v -0.977639 15.788194 0.000000
v -0.691296 15.788194 -0.559988
v 0.000000 15.788194 -0.791942
v 0.691296 15.788194 -0.559988
v 0.977640 15.788194 0.000000
v -0.000677 16.234421 -0.869672
v -0.866361 16.234421 -0.869521
v -0.865208 16.234421 -0.001950
v -0.866361 16.234421 0.886346
v -0.000677 16.234421 0.881889
v 0.862444 16.234421 0.886346
v 0.872148 16.234421 -0.001950
v 0.862444 16.234421 -0.869521
v -0.000677 18.231998 -0.869452
v -0.000677 18.231915 -0.001948
v -0.866277 18.231998 -0.869304
v -0.865125 18.231998 -0.001948
v -0.866278 18.231998 0.886136
v -0.000677 18.231998 0.881677
v 0.862361 18.231998 0.886131
v 0.872064 18.231998 -0.001948
v 0.862361 18.231998 -0.869299
v -0.000677 17.168209 0.881790
v -0.866322 17.168209 0.886248
v -0.866322 17.168209 -0.869420
v -0.000677 17.168209 -0.869570
v 0.862405 17.168209 -0.869418
v 0.872109 17.168209 -0.001949
v 0.862405 17.168209 0.886246
v -1.233032 16.730152 -0.423669
v -1.232647 16.552906 0.001505
v -1.233005 17.191673 -0.580262
v -1.233032 16.730152 0.433586
v -1.233005 17.191673 0.590181
v -1.232976 17.700146 0.433510
v -1.232591 17.877392 0.001506
v -1.232976 17.700146 -0.423589
v -2.343501 16.730152 -0.423669
v -2.343117 16.552906 0.001505
v -2.343474 17.191673 -0.580262
v -2.343501 16.730152 0.433586
v -2.343474 17.191673 0.590181
v -2.343445 17.700146 0.433510
v -2.343061 17.877392 0.001506
v -2.343445 17.700146 -0.423589
v -2.726517 16.498169 -0.628687
v -2.725949 16.236145 -0.000148
v -2.726478 17.180447 -0.860181
v -2.726518 16.498173 0.638604
v -2.726478 17.180447 0.870100
v -2.726435 17.932129 0.638491
v -2.725867 18.194153 -0.000145
v -2.726435 17.932129 -0.628569
v -4.124313 16.498169 -0.628687
v -4.123745 16.236145 -0.000148
v -4.123138 17.145756 -0.005253
v -4.124273 17.180447 -0.860181
v -4.124313 16.498173 0.638604
v -4.124273 17.180447 0.870100
v -4.124231 17.932129 0.638491
v -4.123662 18.194153 -0.000145
v -4.124230 17.932129 -0.628569
v 2.441239 17.668095 -0.869418
v 2.450942 17.668095 -0.486215
v 2.441194 18.245560 -0.869299
v 2.450898 18.245560 -0.486214
v 4.056013 17.583241 -0.869418
v 4.065111 17.582005 -0.486215
v 4.256814 17.781528 -0.869299
v 4.265911 17.780293 -0.486214
v 5.241989 16.660721 -0.877010
v 5.246945 16.655396 -0.493856
v 5.351384 16.768761 -0.877954
v 5.356341 16.763435 -0.494918
v 2.450942 17.671818 0.511607
v 2.441238 17.671818 0.886246
v 2.450897 18.241840 0.511609
v 2.441193 18.241840 0.886131
v 4.138687 17.555553 0.511607
v 4.130045 17.559963 0.886246
v 4.265227 17.803570 0.511609
v 4.256585 17.807980 0.886131
v 5.269176 16.634190 0.521305
v 5.272107 16.648548 0.895708
v 5.363115 16.705044 0.524748
v 5.366045 16.719398 0.899036
vt 0.258796 0.031735
vt 0.218705 0.015129
vt 0.178615 0.031735
vt 0.162009 0.071826
vt 0.178615 0.111916
vt 0.218705 0.128522
vt 0.258796 0.111916
vt 0.275402 0.071826
vt 0.023402 0.140751
vt 0.023402 0.146812
vt 0.359618 0.146812
vt 0.079685 0.140751
vt 0.079685 0.146812
vt 0.121527 0.140751
vt 0.121527 0.146812
vt 0.163368 0.140751
vt 0.163368 0.146812
vt 0.219651 0.140751
vt 0.219651 0.146812
vt 0.275934 0.140751
vt 0.275934 0.146812
vt 0.317776 0.140751
vt 0.317776 0.146812
vt 0.023402 0.155092
vt 0.359618 0.155092
vt 0.079685 0.155092
vt 0.121527 0.155092
vt 0.163368 0.155092
vt 0.219651 0.155092
vt 0.275934 0.155092
vt 0.317776 0.155092
vt 0.023402 0.451927
vt 0.363789 0.451927
vt 0.075513 0.451927
vt 0.121527 0.451927
vt 0.167540 0.451927
vt 0.219651 0.451927
vt 0.271763 0.451927
vt 0.317776 0.451927
vt 0.163368 0.568506
vt 0.219651 0.568506
vt 0.774536 0.530159
vt 0.823346 0.534863
vt 0.815681 0.585077
vt 0.774270 0.592615
vt 0.731766 0.584245
vt 0.724685 0.534054
vt 0.716581 0.475611
vt 0.774856 0.459762
vt 0.218705 0.065022
vt 0.831506 0.476347
vt 0.219651 0.708777
vt 0.173157 0.708777
vt 0.121527 0.568506
vt 0.121527 0.708777
vt 0.079685 0.568506
vt 0.069896 0.708777
vt 0.023402 0.568506
vt 0.023402 0.708777
vt 0.369407 0.708777
vt 0.317776 0.568506
vt 0.317776 0.708777
vt 0.275934 0.568506
vt 0.266145 0.708777
vt 0.219651 0.960365
vt 0.164057 0.960365
vt 0.121527 0.960365
vt 0.078996 0.960365
vt 0.023402 0.960365
vt 0.360307 0.960365
vt 0.317776 0.960365
vt 0.275245 0.960365
vt 0.282112 0.983024
vt 0.219651 0.983024
vt 0.157106 0.983024
vt 0.121527 0.983024
vt 0.087016 0.983024
vt 0.023402 0.983024
vt 0.352369 0.983024
vt 0.317776 0.983024
vt 0.955767 0.584405
vt 0.933220 0.627907
vt 0.910756 0.617006
vt 0.929995 0.574026
vt 0.601132 0.652103
vt 0.610767 0.656215
vt 0.614822 0.626285
vt 0.637072 0.615535
vt 0.592472 0.583224
vt 0.617986 0.572867
vt 0.583415 0.534440
vt 0.607207 0.529899
vt 0.989162 0.519748
vt 0.982438 0.511046
vt 0.965101 0.535247
vt 0.941281 0.530669
vt 0.862875 0.610599
vt 0.881049 0.552402
vt 0.810437 0.898141
vt 0.640033 0.860456
vt 0.771168 0.859755
vt 0.820785 0.845066
vt 0.681642 0.854036
vt 0.721374 0.842595
vt 0.666867 0.551455
vt 0.684936 0.609138
vt 0.645714 0.490148
vt 0.775747 0.427478
vt 0.901907 0.491352
vt 0.749166 0.819028
vt 0.771774 0.813416
vt 0.793902 0.820091
vt 0.823080 0.146747
vt 0.856605 0.148383
vt 0.849484 0.173469
vt 0.830201 0.171664
vt 0.688034 0.141791
vt 0.720108 0.139523
vt 0.714619 0.163566
vt 0.694771 0.165813
vt 0.634426 0.669320
vt 0.886352 0.655291
vt 0.852111 0.642874
vt 0.661183 0.653613
vt 0.695504 0.641621
vt 0.736199 0.632841
vt 0.774044 0.630227
vt 0.811395 0.633571
vt 0.642547 0.732376
vt 0.874299 0.733300
vt 0.841235 0.726578
vt 0.672040 0.730334
vt 0.704889 0.724624
vt 0.740945 0.719055
vt 0.773288 0.716753
vt 0.805164 0.719826
vt 0.630376 0.765600
vt 0.875029 0.767253
vt 0.838305 0.758708
vt 0.670360 0.763901
vt 0.707014 0.756685
vt 0.742939 0.750380
vt 0.772851 0.748896
vt 0.802250 0.751274
vt 0.879702 0.373251
vt 0.902993 0.368012
vt 0.845060 0.375769
vt 0.822787 0.374739
vt 0.867278 0.255904
vt 0.892659 0.252280
vt 0.850362 0.249548
vt 0.825726 0.248637
vt 0.755287 0.363770
vt 0.667937 0.370778
vt 0.725190 0.372091
vt 0.703024 0.373361
vt 0.737562 0.243954
vt 0.678207 0.246860
vt 0.720294 0.244671
vt 0.695969 0.246024
vt 0.359618 0.140751
vt 0.415901 0.140751
vt 0.415901 0.146812
vt 0.415901 0.155092
vt 0.415901 0.451927
vt 0.415901 0.568506
vt 0.415901 0.708777
vt 0.359618 0.568506
vt 0.415901 0.960365
vt 0.415901 0.983024
vt 0.663339 0.138568
vt 0.653117 0.243627
vt 0.644855 0.366056
vt 0.953190 0.464137
vt 0.593058 0.463046
vt 0.881967 0.144882
vt 0.808957 0.254328
vt 0.793212 0.367490
vt 0.728933 0.895599
vt 0.901706 0.865835
vt 0.769355 0.918266
vt 0.860574 0.857830
vt 0.914644 0.770441
vt 0.903636 0.736193
vt 0.913080 0.671066
vt 0.936637 0.657114
vt 0.564822 0.509992
vt 0.558586 0.519189
vt 0.946368 0.653272
vn 0.151651 -0.966945 -0.204985
vn 0.000000 -0.965271 -0.261252
vn 0.000000 -0.763061 -0.646326
vn 0.382167 -0.786640 -0.484920
vn -0.151651 -0.966945 -0.204985
vn -0.382167 -0.786639 -0.484920
vn -0.222244 -0.974991 0.000000
vn -0.581781 -0.813346 -0.000000
vn -0.151651 -0.966945 0.204985
vn -0.382167 -0.786640 0.484918
vn 0.000000 -0.965271 0.261252
vn -0.000000 -0.763063 0.646325
vn 0.151651 -0.966945 0.204985
vn 0.382166 -0.786641 0.484918
vn 0.222244 -0.974991 0.000000
vn 0.581780 -0.813346 -0.000000
vn 0.000000 -0.013399 -0.999910
vn 0.647838 -0.006819 -0.761748
vn -0.647838 -0.006819 -0.761748
vn -0.999999 0.001137 0.000000
vn -0.647838 -0.006819 0.761748
vn -0.000000 -0.013399 0.999910
vn 0.647838 -0.006819 0.761748
vn 0.999999 0.001137 0.000000
vn 0.000000 -0.007208 -0.999974
vn 0.647776 -0.004853 -0.761815
vn -0.647777 -0.004853 -0.761815
vn -0.999998 -0.002113 -0.000000
vn -0.647777 -0.004853 0.761815
vn -0.000000 -0.007208 0.999974
vn 0.647776 -0.004853 0.761815
vn 0.999998 -0.002113 -0.000000
vn 0.000000 -1.000000 0.000000
vn -0.000000 1.000000 -0.000000
vn 0.000002 0.632904 -0.774230
vn -0.239726 0.621925 -0.745480
vn -0.295708 0.955278 -0.000132
vn -0.238847 0.627978 0.740673
vn 0.000002 0.642138 0.766589
vn -0.003879 0.623377 0.781912
vn 0.250400 0.968140 0.002419
vn -0.002950 0.616981 -0.786973
vn -0.681987 0.013599 0.731238
vn -0.000000 0.003031 0.999995
vn -0.000000 0.008197 0.999967
vn -0.678760 0.006818 0.734329
vn -0.999705 0.024284 0.000000
vn -0.999985 0.005471 0.000000
vn -0.681987 0.013599 -0.731238
vn -0.678760 0.006818 -0.734329
vn 0.000000 0.003031 -0.999995
vn 0.000000 0.008197 -0.999967
vn 0.681987 0.013599 -0.731238
vn 0.678760 0.006818 -0.734329
vn 0.999705 0.024284 -0.000000
vn 0.999985 0.005471 -0.000000
vn 0.681987 0.013599 0.731238
vn 0.678760 0.006818 0.734329
vn -0.000000 0.036966 0.999317
vn -0.674896 0.015297 0.737754
vn -0.999826 -0.018662 0.000000
vn -0.674205 0.017170 -0.738344
vn 0.000000 0.039778 -0.999209
vn 0.674189 0.016965 -0.738364
vn 0.999822 -0.018852 -0.000000
vn 0.674878 0.015088 0.737775
vn 0.502850 -0.603077 0.619225
vn -0.000000 -0.506823 0.862050
vn -0.504169 -0.604427 0.616832
vn -0.989215 -0.146469 0.000004
vn -0.513347 -0.584919 -0.627969
vn 0.000000 -0.486950 -0.873430
vn 0.511955 -0.583534 -0.630389
vn 0.987083 -0.160208 -0.000033
vn -0.289306 -0.401219 -0.869094
vn 0.000001 -0.389970 -0.920828
vn -0.634319 -0.773071 -0.000323
vn -0.290081 -0.401436 0.868736
vn 0.000001 -0.390006 0.920812
vn 0.690528 -0.240910 0.682007
vn 0.991253 -0.131974 -0.000000
vn 0.683667 -0.244056 -0.687776
vn -0.249229 -0.000668 -0.968444
vn 0.000001 0.000110 -1.000000
vn -0.424447 -0.609740 -0.669374
vn -0.440524 -0.897741 -0.000002
vn -1.000000 0.000063 0.000004
vn -0.441356 0.000076 -0.897332
vn -0.429501 -0.612051 0.664020
vn -0.449196 0.000073 0.893433
vn 0.000001 0.000106 1.000000
vn -0.249643 -0.000664 0.968338
vn 0.359864 -0.314254 0.878489
vn 0.865591 -0.500749 0.001606
vn 0.355273 -0.311427 -0.881360
vn -0.457992 0.579115 0.674440
vn -0.488717 0.872442 -0.000004
vn -0.452855 0.576874 -0.679808
vn -0.453620 -0.724609 0.518817
vn -0.462092 -0.725850 -0.509523
vn 0.655188 0.578472 -0.485900
vn 0.662021 0.574766 0.481012
vn -0.485799 -0.702137 0.520579
vn -0.486310 -0.711912 -0.506640
vn 0.687935 0.588883 -0.424219
vn 0.687299 0.603490 0.404251
vn -0.402818 -0.915280 0.000125
vn -0.431284 -0.602451 -0.671600
vn -0.363020 0.000916 -0.931781
vn -0.435976 -0.606429 0.664957
vn -0.368841 0.000899 0.929492
vn -0.454454 0.568536 0.685739
vn -0.431973 0.901886 0.000112
vn -0.449359 0.564594 -0.692322
vn 0.263788 -0.964581 0.000104
vn 0.258101 -0.647103 -0.717385
vn 0.229790 0.000921 -0.973240
vn 0.258384 -0.651337 0.713441
vn 0.229789 0.000918 0.973240
vn 0.258147 0.625229 0.736511
vn 0.263798 0.964578 0.000104
vn 0.257822 0.620907 -0.740272
vn 0.133128 -0.991099 -0.000069
vn 0.128150 -0.670108 -0.731118
vn 0.122343 -0.000496 -0.992488
vn 0.128110 -0.674348 0.727216
vn 0.122342 -0.000499 0.992488
vn 0.126785 0.648876 0.750257
vn 0.133126 0.991099 -0.000071
vn 0.126792 0.644544 -0.753981
vn 0.101881 -0.576311 -0.810855
vn 0.269478 -0.598210 0.754670
vn 0.065869 0.668303 -0.740967
vn 0.209608 0.691299 0.691498
vn -0.221304 -0.617868 -0.754496
vn -0.223070 -0.613362 0.757646
vn 0.379749 0.754809 -0.534840
vn 0.387546 0.753212 0.531488
vn 0.272721 -0.598316 -0.753420
vn 0.098593 -0.574380 0.812630
vn 0.210766 0.684858 -0.697529
vn 0.060523 0.660528 0.748358
vn -0.230638 -0.630003 -0.741554
vn -0.228073 -0.627512 0.744454
vn 0.384140 0.723178 -0.573977
vn 0.378725 0.732297 0.565958
s 1
g pCylinder1
usemtl lambert2SG
f 1/161/1 2/162/2 10/163/3 9/11/4
f 2/9/2 3/12/5 11/13/6 10/10/3
f 3/12/5 4/14/7 12/15/8 11/13/6
f 4/14/7 5/16/9 13/17/10 12/15/8
f 5/16/9 6/18/11 14/19/12 13/17/10
f 6/18/11 7/20/13 15/21/14 14/19/12
f 7/20/13 8/22/15 16/23/16 15/21/14
f 8/22/15 1/161/1 9/11/4 16/23/16
f 9/11/4 10/163/3 18/164/17 17/25/18
f 10/10/3 11/13/6 19/26/19 18/24/17
f 11/13/6 12/15/8 20/27/20 19/26/19
f 12/15/8 13/17/10 21/28/21 20/27/20
f 13/17/10 14/19/12 22/29/22 21/28/21
f 14/19/12 15/21/14 23/30/23 22/29/22
f 15/21/14 16/23/16 24/31/24 23/30/23
f 16/23/16 9/11/4 17/25/18 24/31/24
f 17/25/18 18/164/17 46/165/25 47/33/26
f 18/24/17 19/26/19 45/34/27 46/32/25
f 19/26/19 20/27/20 44/35/28 45/34/27
f 20/27/20 21/28/21 43/36/29 44/35/28
f 21/28/21 22/29/22 42/37/30 43/36/29
f 22/29/22 23/30/23 49/38/31 42/37/30
f 23/30/23 24/31/24 48/39/32 49/38/31
f 24/31/24 17/25/18 47/33/26 48/39/32
f 3/3/5 2/2/2 33/50/33 4/4/7
f 5/5/9 4/4/7 33/50/33 6/6/11
f 7/7/13 6/6/11 33/50/33 8/8/15
f 1/1/1 8/8/15 33/50/33 2/2/2
f 75/42/34 74/43/35 76/44/36 77/45/37
f 75/42/34 77/45/37 78/46/38 79/47/39
f 75/42/34 79/47/39 80/48/40 81/49/41
f 75/42/34 81/49/41 82/51/42 74/43/35
f 35/40/43 34/41/44 50/52/45 51/53/46
f 36/54/47 35/40/43 51/53/46 52/55/48
f 37/56/49 36/54/47 52/55/48 53/57/50
f 38/58/51 37/56/49 53/57/50 54/59/52
f 39/168/53 38/166/51 54/167/52 55/60/54
f 40/61/55 39/168/53 55/60/54 56/62/56
f 41/63/57 40/61/55 56/62/56 57/64/58
f 34/41/44 41/63/57 57/64/58 50/52/45
f 43/36/29 42/37/30 34/41/44 35/40/43
f 44/35/28 43/36/29 35/40/43 36/54/47
f 45/34/27 44/35/28 36/54/47 37/56/49
f 46/32/25 45/34/27 37/56/49 38/58/51
f 47/33/26 46/165/25 38/166/51 39/168/53
f 48/39/32 47/33/26 39/168/53 40/61/55
f 49/38/31 48/39/32 40/61/55 41/63/57
f 42/37/30 49/38/31 41/63/57 34/41/44
f 51/53/46 50/52/45 59/65/59 60/66/60
f 52/55/48 51/53/46 60/66/60 61/67/61
f 53/57/50 52/55/48 61/67/61 62/68/62
f 54/59/52 53/57/50 62/68/62 63/69/63
f 55/60/54 54/167/52 63/169/63 64/70/64
f 56/62/56 55/60/54 64/70/64 65/71/65
f 57/64/58 56/62/56 65/71/65 58/72/66
f 50/52/45 57/64/58 58/72/66 59/65/59
f 59/65/59 58/72/66 31/73/67 30/74/68
f 60/66/60 59/65/59 30/74/68 29/75/69
f 61/67/61 60/66/60 29/75/69 28/76/70
f 62/68/62 61/67/61 28/76/70 27/77/71
f 63/69/63 62/68/62 27/77/71 26/78/72
f 64/70/64 63/169/63 26/170/72 25/79/73
f 65/71/65 64/70/64 25/79/73 32/80/74
f 58/72/66 65/71/65 32/80/74 31/73/67
f 26/81/72 27/82/71 67/83/75 66/84/76
f 27/82/71 28/189/70 68/186/77 67/83/75
f 28/85/70 29/87/69 69/88/78 68/86/77
f 29/87/69 30/89/68 70/90/79 69/88/78
f 30/89/68 31/91/67 71/92/80 70/90/79
f 31/91/67 32/188/74 72/187/81 71/92/80
f 32/93/74 25/95/73 73/96/82 72/94/81
f 25/95/73 26/81/72 66/84/76 73/96/82
f 66/84/76 67/83/75 85/97/83 86/98/84
f 114/99/85 115/181/86 116/101/87 117/102/88
f 115/181/86 118/179/89 119/104/90 116/101/87
f 69/88/78 70/90/79 83/105/91 84/106/92
f 70/90/79 71/92/80 89/107/93 83/105/91
f 71/92/80 72/187/81 88/175/94 89/107/93
f 72/94/81 73/96/82 87/109/95 88/174/94
f 73/96/82 66/84/76 86/98/84 87/109/95
f 84/106/92 83/105/91 79/47/39 78/46/38
f 116/101/87 119/104/90 120/110/96 121/111/97
f 117/102/88 116/101/87 121/111/97 122/112/98
f 86/98/84 85/97/83 76/44/36 74/43/35
f 87/109/95 86/98/84 74/43/35 82/51/42
f 132/113/99 131/114/100 133/115/101 134/116/102
f 144/117/103 143/118/104 145/119/105 146/120/106
f 83/105/91 89/107/93 80/48/40 79/47/39
f 67/83/75 68/186/77 91/185/107 90/122/108
f 85/97/83 67/83/75 90/122/108 92/123/109
f 68/86/77 69/88/78 93/124/110 91/121/107
f 69/88/78 84/106/92 94/125/111 93/124/110
f 84/106/92 78/46/38 95/126/112 94/125/111
f 78/46/38 77/45/37 96/127/113 95/126/112
f 77/45/37 76/44/36 97/128/114 96/127/113
f 76/44/36 85/97/83 92/123/109 97/128/114
f 90/122/108 91/185/107 99/184/115 98/130/116
f 92/123/109 90/122/108 98/130/116 100/131/117
f 91/121/107 93/124/110 101/132/118 99/129/115
f 93/124/110 94/125/111 102/133/119 101/132/118
f 94/125/111 95/126/112 103/134/120 102/133/119
f 95/126/112 96/127/113 104/135/121 103/134/120
f 96/127/113 97/128/114 105/136/122 104/135/121
f 97/128/114 92/123/109 100/131/117 105/136/122
f 98/130/116 99/184/115 107/183/123 106/138/124
f 100/131/117 98/130/116 106/138/124 108/139/125
f 99/129/115 101/132/118 109/140/126 107/137/123
f 101/132/118 102/133/119 110/141/127 109/140/126
f 102/133/119 103/134/120 111/142/128 110/141/127
f 103/134/120 104/135/121 112/143/129 111/142/128
f 104/135/121 105/136/122 113/144/130 112/143/129
f 105/136/122 100/131/117 108/139/125 113/144/130
f 106/138/124 107/183/123 115/180/86 114/182/85
f 108/139/125 106/138/124 114/182/85 117/102/88
f 107/137/123 109/140/126 118/103/89 115/100/86
f 109/140/126 110/141/127 119/104/90 118/103/89
f 110/141/127 111/142/128 120/110/96 119/104/90
f 111/142/128 112/143/129 121/111/97 120/110/96
f 112/143/129 113/144/130 122/112/98 121/111/97
f 113/144/130 108/139/125 117/102/88 122/112/98
f 88/174/94 87/109/95 123/145/131 124/146/132
f 87/109/95 82/51/42 125/147/133 123/145/131
f 82/51/42 81/49/41 126/148/134 125/147/133
f 81/49/41 88/108/94 124/178/132 126/148/134
f 124/146/132 123/145/131 127/149/135 128/150/136
f 123/145/131 125/147/133 129/151/137 127/149/135
f 125/147/133 126/148/134 130/152/138 129/151/137
f 126/148/134 124/178/132 128/177/136 130/152/138
f 128/150/136 127/149/135 131/114/100 132/176/99
f 127/149/135 129/151/137 133/115/101 131/114/100
f 129/151/137 130/152/138 134/116/102 133/115/101
f 130/152/138 128/177/136 132/113/99 134/116/102
f 89/107/93 88/175/94 135/173/139 136/154/140
f 88/108/94 81/49/41 137/155/141 135/153/139
f 81/49/41 80/48/40 138/156/142 137/155/141
f 80/48/40 89/107/93 136/154/140 138/156/142
f 136/154/140 135/173/139 139/172/143 140/158/144
f 135/153/139 137/155/141 141/159/145 139/157/143
f 137/155/141 138/156/142 142/160/146 141/159/145
f 138/156/142 136/154/140 140/158/144 142/160/146
f 140/158/144 139/172/143 143/171/104 144/117/103
f 139/157/143 141/159/145 145/119/105 143/118/104
f 141/159/145 142/160/146 146/120/106 145/119/105
f 142/160/146 140/158/144 144/117/103 146/120/106
